<?xml version="1.0" encoding="UTF-8"?>
<!DOCTYPE svg PUBLIC "-//W3C//DTD SVG 1.1//EN" "http://www.w3.org/Graphics/SVG/1.1/DTD/svg11.dtd">
<svg version="1.2" width="249mm" height="190mm" viewBox="0 0 24900 19000" preserveAspectRatio="xMidYMid" fill-rule="evenodd" stroke-width="28.222" stroke-linejoin="round" xmlns="http://www.w3.org/2000/svg" xmlns:ooo="http://xml.openoffice.org/svg/export" xmlns:xlink="http://www.w3.org/1999/xlink" xmlns:presentation="http://sun.com/xmlns/staroffice/presentation" xmlns:smil="http://www.w3.org/2001/SMIL20/" xmlns:anim="urn:oasis:names:tc:opendocument:xmlns:animation:1.0" xml:space="preserve">
 <defs class="ClipPathGroup">
  <clipPath id="presentation_clip_path" clipPathUnits="userSpaceOnUse">
   <rect x="0" y="0" width="24900" height="19000"/>
  </clipPath>
  <clipPath id="presentation_clip_path_shrink" clipPathUnits="userSpaceOnUse">
   <rect x="24" y="19" width="24851" height="18962"/>
  </clipPath>
 </defs>
 <defs class="TextShapeIndex">
  <g ooo:slide="id1" ooo:id-list="id3"/>
 </defs>
 <defs class="EmbeddedBulletChars">
  <g id="bullet-char-template-57356" transform="scale(0.00048828125,-0.00048828125)">
   <path d="M 580,1141 L 1163,571 580,0 -4,571 580,1141 Z"/>
  </g>
  <g id="bullet-char-template-57354" transform="scale(0.00048828125,-0.00048828125)">
   <path d="M 8,1128 L 1137,1128 1137,0 8,0 8,1128 Z"/>
  </g>
  <g id="bullet-char-template-10146" transform="scale(0.00048828125,-0.00048828125)">
   <path d="M 174,0 L 602,739 174,1481 1456,739 174,0 Z M 1358,739 L 309,1346 659,739 1358,739 Z"/>
  </g>
  <g id="bullet-char-template-10132" transform="scale(0.00048828125,-0.00048828125)">
   <path d="M 2015,739 L 1276,0 717,0 1260,543 174,543 174,936 1260,936 717,1481 1274,1481 2015,739 Z"/>
  </g>
  <g id="bullet-char-template-10007" transform="scale(0.00048828125,-0.00048828125)">
   <path d="M 0,-2 C -7,14 -16,27 -25,37 L 356,567 C 262,823 215,952 215,954 215,979 228,992 255,992 264,992 276,990 289,987 310,991 331,999 354,1012 L 381,999 492,748 772,1049 836,1024 860,1049 C 881,1039 901,1025 922,1006 886,937 835,863 770,784 769,783 710,716 594,584 L 774,223 C 774,196 753,168 711,139 L 727,119 C 717,90 699,76 672,76 641,76 570,178 457,381 L 164,-76 C 142,-110 111,-127 72,-127 30,-127 9,-110 8,-76 1,-67 -2,-52 -2,-32 -2,-23 -1,-13 0,-2 Z"/>
  </g>
  <g id="bullet-char-template-10004" transform="scale(0.00048828125,-0.00048828125)">
   <path d="M 285,-33 C 182,-33 111,30 74,156 52,228 41,333 41,471 41,549 55,616 82,672 116,743 169,778 240,778 293,778 328,747 346,684 L 369,508 C 377,444 397,411 428,410 L 1163,1116 C 1174,1127 1196,1133 1229,1133 1271,1133 1292,1118 1292,1087 L 1292,965 C 1292,929 1282,901 1262,881 L 442,47 C 390,-6 338,-33 285,-33 Z"/>
  </g>
  <g id="bullet-char-template-9679" transform="scale(0.00048828125,-0.00048828125)">
   <path d="M 813,0 C 632,0 489,54 383,161 276,268 223,411 223,592 223,773 276,916 383,1023 489,1130 632,1184 813,1184 992,1184 1136,1130 1245,1023 1353,916 1407,772 1407,592 1407,412 1353,268 1245,161 1136,54 992,0 813,0 Z"/>
  </g>
  <g id="bullet-char-template-8226" transform="scale(0.00048828125,-0.00048828125)">
   <path d="M 346,457 C 273,457 209,483 155,535 101,586 74,649 74,723 74,796 101,859 155,911 209,963 273,989 346,989 419,989 480,963 531,910 582,859 608,796 608,723 608,648 583,586 532,535 482,483 420,457 346,457 Z"/>
  </g>
  <g id="bullet-char-template-8211" transform="scale(0.00048828125,-0.00048828125)">
   <path d="M -4,459 L 1135,459 1135,606 -4,606 -4,459 Z"/>
  </g>
  <g id="bullet-char-template-61548" transform="scale(0.00048828125,-0.00048828125)">
   <path d="M 173,740 C 173,903 231,1043 346,1159 462,1274 601,1332 765,1332 928,1332 1067,1274 1183,1159 1299,1043 1357,903 1357,740 1357,577 1299,437 1183,322 1067,206 928,148 765,148 601,148 462,206 346,322 231,437 173,577 173,740 Z"/>
  </g>
 </defs>
 <g>
  <g id="id2" class="Master_Slide">
   <g id="bg-id2" class="Background"/>
   <g id="bo-id2" class="BackgroundObjects"/>
  </g>
 </g>
 <g class="SlideGroup">
  <g>
   <g id="container-id1">
    <g id="id1" class="Slide" clip-path="url(#presentation_clip_path)">
     <g class="Page">
      <g class="Graphic">
       <g id="id3">
        <rect class="BoundingBox" stroke="none" fill="none" x="1" y="0" width="24900" height="19000"/>
        <defs>
         <clipPath id="clip_path_1" clipPathUnits="userSpaceOnUse">
          <path d="M 1,0 L 24900,0 24900,18999 1,18999 1,0 Z"/>
         </clipPath>
        </defs>
        <g clip-path="url(#clip_path_1)">
         <path fill="rgb(0,0,0)" stroke="none" d="M 348,8869 L 3901,12422 3901,12422 C 4065,12585 4249,12726 4449,12842 4851,13074 5307,13196 5772,13196 5772,13196 5772,13196 5772,13196 L 7642,13196 7642,13196 C 8106,13196 8563,13319 8965,13551 9165,13666 9349,13808 9513,13971 L 13773,18231 13773,18231 C 13937,18395 14121,18536 14321,18652 14723,18884 15179,19006 15644,19006 L 25931,19006 C 27121,19006 28085,18042 28085,16852 L 28085,16852 C 28085,16474 27986,16103 27797,15775 27703,15612 27588,15462 27454,15329 L 25169,13044 C 24850,12726 24850,12209 25169,11891 L 25169,11891 C 25219,11841 25276,11797 25338,11762 25462,11690 25602,11652 25745,11652 25745,11652 25745,11652 25745,11652 26195,11652 26560,11287 26560,10837 26560,10621 26474,10414 26322,10261 L 21154,5094 21154,5094 C 20990,4930 20806,4789 20606,4673 20204,4441 19748,4319 19283,4319 L 13081,4319 13081,4319 C 12616,4319 12160,4196 11758,3964 11558,3849 11373,3707 11210,3544 L 10277,2611 10277,2611 C 10114,2448 9930,2307 9729,2191 9327,1959 8871,1837 8407,1837 L 2185,1837 C 1345,1837 664,2518 664,3358 L 664,3358 C 664,3626 734,3888 868,4119 934,4234 1015,4340 1109,4435 L 1870,5195 C 2291,5616 2291,6297 1870,6717 L 1870,6717 C 1804,6784 1729,6841 1647,6888 1484,6983 1298,7032 1109,7032 1109,7032 1109,7032 1109,7032 515,7032 33,7514 33,8108 L 33,8108 C 33,8108 33,8109 33,8109 33,8297 83,8483 177,8647 224,8728 282,8803 348,8869 L 348,8869 Z"/>
         <path fill="rgb(45,49,77)" stroke="none" d="M 348,8869 L 3901,12422 3901,12422 C 4065,12585 4249,12726 4449,12842 4851,13074 5307,13196 5772,13196 5772,13196 5772,13196 5772,13196 L 7642,13196 7642,13196 C 8106,13196 8563,13319 8965,13551 9165,13666 9349,13808 9513,13971 L 13773,18231 13773,18231 C 13937,18395 14121,18536 14321,18652 14723,18884 15179,19006 15644,19006 L 25931,19006 C 27121,19006 28085,18042 28085,16852 L 28085,16852 C 28085,16474 27986,16103 27797,15775 27703,15612 27588,15462 27454,15329 L 25169,13044 C 24850,12726 24850,12209 25169,11891 L 25169,11891 C 25219,11841 25276,11797 25338,11762 25462,11690 25602,11652 25745,11652 25745,11652 25745,11652 25745,11652 26195,11652 26560,11287 26560,10837 26560,10621 26474,10414 26322,10261 L 21154,5094 21154,5094 C 20990,4930 20806,4789 20606,4673 20204,4441 19748,4319 19283,4319 L 13081,4319 13081,4319 C 12616,4319 12160,4196 11758,3964 11558,3849 11373,3707 11210,3544 L 10277,2611 10277,2611 C 10114,2448 9930,2307 9729,2191 9327,1959 8871,1837 8407,1837 L 2185,1837 C 1345,1837 664,2518 664,3358 L 664,3358 C 664,3626 734,3888 868,4119 934,4234 1015,4340 1109,4435 L 1870,5195 C 2291,5616 2291,6297 1870,6717 L 1870,6717 C 1804,6784 1729,6841 1647,6888 1484,6983 1298,7032 1109,7032 1109,7032 1109,7032 1109,7032 515,7032 33,7514 33,8108 L 33,8108 C 33,8108 33,8109 33,8109 33,8297 83,8483 177,8647 224,8728 282,8803 348,8869 L 348,8869 Z"/>
        </g>
        <defs>
         <clipPath id="clip_path_2" clipPathUnits="userSpaceOnUse">
          <path d="M 3999,748 L 7552,4300 7552,4300 C 7716,4463 7900,4605 8100,4720 8502,4952 8958,5075 9423,5075 9423,5075 9423,5075 9423,5075 L 11293,5075 11293,5075 C 11757,5075 12214,5197 12616,5429 12816,5545 13000,5686 13164,5849 L 17424,10109 17424,10109 C 17588,10273 17772,10414 17972,10530 18374,10762 18830,10884 19295,10884 L 24900,10884 24900,0 3684,0 C 3687,184 3736,365 3828,525 3875,606 3933,681 3999,748 L 3999,748 Z"/>
         </clipPath>
        </defs>
        <g clip-path="url(#clip_path_2)">
         <path fill="rgb(51,211,94)" stroke="none" d="M 5349,-7462 L 6942,-7192 207,7687 -1386,7417 5349,-7462 Z"/>
         <path fill="rgb(51,211,94)" stroke="none" d="M 6871,-7204 L 7162,-7155 427,7724 136,7675 6871,-7204 Z"/>
         <path fill="rgb(51,211,95)" stroke="none" d="M 7091,-7167 L 7382,-7117 647,7762 356,7712 7091,-7167 Z"/>
         <path fill="rgb(51,211,96)" stroke="none" d="M 7311,-7129 L 7602,-7080 867,7799 576,7749 7311,-7129 Z"/>
         <path fill="rgb(51,210,97)" stroke="none" d="M 7531,-7092 L 7822,-7043 1087,7836 796,7787 7531,-7092 Z"/>
         <path fill="rgb(51,210,98)" stroke="none" d="M 7751,-7055 L 8042,-7005 1307,7873 1016,7824 7751,-7055 Z"/>
         <path fill="rgb(51,210,99)" stroke="none" d="M 7971,-7017 L 8262,-6968 1527,7911 1236,7861 7971,-7017 Z"/>
         <path fill="rgb(51,210,100)" stroke="none" d="M 8191,-6980 L 8482,-6931 1747,7948 1456,7899 8191,-6980 Z"/>
         <path fill="rgb(51,209,101)" stroke="none" d="M 8411,-6943 L 8702,-6893 1967,7985 1676,7936 8411,-6943 Z"/>
         <path fill="rgb(50,209,102)" stroke="none" d="M 8631,-6906 L 8922,-6856 2187,8023 1896,7973 8631,-6906 Z"/>
         <path fill="rgb(50,209,103)" stroke="none" d="M 8851,-6868 L 9142,-6819 2407,8060 2116,8011 8851,-6868 Z"/>
         <path fill="rgb(50,209,104)" stroke="none" d="M 9071,-6831 L 9362,-6782 2627,8097 2336,8048 9071,-6831 Z"/>
         <path fill="rgb(50,208,105)" stroke="none" d="M 9291,-6794 L 9582,-6744 2847,8135 2555,8085 9291,-6794 Z"/>
         <path fill="rgb(50,208,106)" stroke="none" d="M 9510,-6756 L 9802,-6707 3067,8172 2775,8122 9510,-6756 Z"/>
         <path fill="rgb(50,208,107)" stroke="none" d="M 9730,-6719 L 10022,-6670 3287,8209 2995,8160 9730,-6719 Z"/>
         <path fill="rgb(50,208,108)" stroke="none" d="M 9950,-6682 L 10242,-6632 3507,8246 3215,8197 9950,-6682 Z"/>
         <path fill="rgb(50,208,109)" stroke="none" d="M 10170,-6645 L 10462,-6595 3727,8284 3435,8234 10170,-6645 Z"/>
         <path fill="rgb(50,207,109)" stroke="none" d="M 10390,-6607 L 10682,-6558 3947,8321 3655,8272 10390,-6607 Z"/>
         <path fill="rgb(50,207,110)" stroke="none" d="M 10610,-6570 L 10902,-6521 4167,8358 3875,8309 10610,-6570 Z"/>
         <path fill="rgb(50,207,111)" stroke="none" d="M 10830,-6533 L 11122,-6483 4386,8396 4095,8346 10830,-6533 Z"/>
         <path fill="rgb(50,207,112)" stroke="none" d="M 11050,-6495 L 11342,-6446 4606,8433 4315,8384 11050,-6495 Z"/>
         <path fill="rgb(50,206,113)" stroke="none" d="M 11270,-6458 L 11561,-6409 4826,8470 4535,8421 11270,-6458 Z"/>
         <path fill="rgb(50,206,114)" stroke="none" d="M 11490,-6421 L 11781,-6371 5046,8508 4755,8458 11490,-6421 Z"/>
         <path fill="rgb(49,206,115)" stroke="none" d="M 11710,-6383 L 12001,-6334 5266,8545 4975,8495 11710,-6383 Z"/>
         <path fill="rgb(49,206,116)" stroke="none" d="M 11930,-6346 L 12221,-6297 5486,8582 5195,8533 11930,-6346 Z"/>
         <path fill="rgb(49,206,117)" stroke="none" d="M 12150,-6309 L 12441,-6259 5706,8619 5415,8570 12150,-6309 Z"/>
         <path fill="rgb(49,205,118)" stroke="none" d="M 12370,-6272 L 12661,-6222 5926,8657 5635,8607 12370,-6272 Z"/>
         <path fill="rgb(49,205,119)" stroke="none" d="M 12590,-6234 L 12881,-6185 6146,8694 5855,8645 12590,-6234 Z"/>
         <path fill="rgb(49,205,120)" stroke="none" d="M 12810,-6197 L 13101,-6148 6366,8731 6075,8682 12810,-6197 Z"/>
         <path fill="rgb(49,205,121)" stroke="none" d="M 13030,-6160 L 13321,-6110 6586,8769 6295,8719 13030,-6160 Z"/>
         <path fill="rgb(49,204,122)" stroke="none" d="M 13250,-6122 L 13541,-6073 6806,8806 6515,8757 13250,-6122 Z"/>
         <path fill="rgb(49,204,123)" stroke="none" d="M 13470,-6085 L 13761,-6036 7026,8843 6735,8794 13470,-6085 Z"/>
         <path fill="rgb(49,204,124)" stroke="none" d="M 13690,-6048 L 13981,-5998 7246,8881 6955,8831 13690,-6048 Z"/>
         <path fill="rgb(49,204,125)" stroke="none" d="M 13910,-6010 L 14201,-5961 7466,8918 7175,8868 13910,-6010 Z"/>
         <path fill="rgb(49,203,126)" stroke="none" d="M 14130,-5973 L 14421,-5924 7686,8955 7394,8906 14130,-5973 Z"/>
         <path fill="rgb(49,203,127)" stroke="none" d="M 14350,-5936 L 14641,-5886 7906,8992 7614,8943 14350,-5936 Z"/>
         <path fill="rgb(49,203,128)" stroke="none" d="M 14569,-5899 L 14861,-5849 8126,9030 7834,8980 14569,-5899 Z"/>
         <path fill="rgb(48,203,129)" stroke="none" d="M 14789,-5861 L 15081,-5812 8346,9067 8054,9018 14789,-5861 Z"/>
         <path fill="rgb(48,203,130)" stroke="none" d="M 15009,-5824 L 15301,-5775 8566,9104 8274,9055 15009,-5824 Z"/>
         <path fill="rgb(48,202,131)" stroke="none" d="M 15229,-5787 L 15521,-5737 8786,9142 8494,9092 15229,-5787 Z"/>
         <path fill="rgb(48,202,132)" stroke="none" d="M 15449,-5749 L 15741,-5700 9006,9179 8714,9129 15449,-5749 Z"/>
         <path fill="rgb(48,202,133)" stroke="none" d="M 15669,-5712 L 15961,-5663 9225,9216 8934,9167 15669,-5712 Z"/>
         <path fill="rgb(48,202,134)" stroke="none" d="M 15889,-5675 L 16181,-5625 9445,9253 9154,9204 15889,-5675 Z"/>
         <path fill="rgb(48,201,135)" stroke="none" d="M 16109,-5637 L 16400,-5588 9665,9291 9374,9241 16109,-5637 Z"/>
         <path fill="rgb(48,201,136)" stroke="none" d="M 16329,-5600 L 16620,-5551 9885,9328 9594,9279 16329,-5600 Z"/>
         <path fill="rgb(48,201,137)" stroke="none" d="M 16549,-5563 L 16840,-5513 10105,9365 9814,9316 16549,-5563 Z"/>
         <path fill="rgb(48,201,138)" stroke="none" d="M 16769,-5526 L 17060,-5476 10325,9403 10034,9353 16769,-5526 Z"/>
         <path fill="rgb(48,200,139)" stroke="none" d="M 16989,-5488 L 17280,-5439 10545,9440 10254,9391 16989,-5488 Z"/>
         <path fill="rgb(48,200,140)" stroke="none" d="M 17209,-5451 L 17500,-5402 10765,9477 10474,9428 17209,-5451 Z"/>
         <path fill="rgb(48,200,140)" stroke="none" d="M 17429,-5414 L 17720,-5364 10985,9515 10694,9465 17429,-5414 Z"/>
         <path fill="rgb(48,200,141)" stroke="none" d="M 17649,-5376 L 17940,-5327 11205,9552 10914,9502 17649,-5376 Z"/>
         <path fill="rgb(47,200,142)" stroke="none" d="M 17869,-5339 L 18160,-5290 11425,9589 11134,9540 17869,-5339 Z"/>
         <path fill="rgb(47,199,143)" stroke="none" d="M 18089,-5302 L 18380,-5252 11645,9626 11354,9577 18089,-5302 Z"/>
         <path fill="rgb(47,199,144)" stroke="none" d="M 18309,-5264 L 18600,-5215 11865,9664 11574,9614 18309,-5264 Z"/>
         <path fill="rgb(47,199,145)" stroke="none" d="M 18529,-5227 L 18820,-5178 12085,9701 11794,9652 18529,-5227 Z"/>
         <path fill="rgb(47,199,146)" stroke="none" d="M 18749,-5190 L 19040,-5140 12305,9738 12014,9689 18749,-5190 Z"/>
         <path fill="rgb(47,198,147)" stroke="none" d="M 18969,-5153 L 19260,-5103 12525,9776 12233,9726 18969,-5153 Z"/>
         <path fill="rgb(47,198,148)" stroke="none" d="M 19189,-5115 L 19480,-5066 12745,9813 12453,9764 19189,-5115 Z"/>
         <path fill="rgb(47,198,149)" stroke="none" d="M 19408,-5078 L 19700,-5029 12965,9850 12673,9801 19408,-5078 Z"/>
         <path fill="rgb(47,198,150)" stroke="none" d="M 19628,-5041 L 19920,-4991 13185,9888 12893,9838 19628,-5041 Z"/>
         <path fill="rgb(47,198,151)" stroke="none" d="M 19848,-5003 L 20140,-4954 13405,9925 13113,9875 19848,-5003 Z"/>
         <path fill="rgb(47,197,152)" stroke="none" d="M 20068,-4966 L 20360,-4917 13625,9962 13333,9913 20068,-4966 Z"/>
         <path fill="rgb(47,197,153)" stroke="none" d="M 20288,-4929 L 20580,-4879 13845,9999 13553,9950 20288,-4929 Z"/>
         <path fill="rgb(47,197,154)" stroke="none" d="M 20508,-4891 L 20800,-4842 14065,10037 13773,9987 20508,-4891 Z"/>
         <path fill="rgb(47,197,155)" stroke="none" d="M 20728,-4854 L 21020,-4805 14284,10074 13993,10025 20728,-4854 Z"/>
         <path fill="rgb(46,196,156)" stroke="none" d="M 20948,-4817 L 21239,-4767 14504,10111 14213,10062 20948,-4817 Z"/>
         <path fill="rgb(46,196,157)" stroke="none" d="M 21168,-4780 L 21459,-4730 14724,10149 14433,10099 21168,-4780 Z"/>
         <path fill="rgb(46,196,158)" stroke="none" d="M 21388,-4742 L 21679,-4693 14944,10186 14653,10137 21388,-4742 Z"/>
         <path fill="rgb(46,196,159)" stroke="none" d="M 21608,-4705 L 21899,-4656 15164,10223 14873,10174 21608,-4705 Z"/>
         <path fill="rgb(46,195,160)" stroke="none" d="M 21828,-4668 L 22119,-4618 15384,10261 15093,10211 21828,-4668 Z"/>
         <path fill="rgb(46,195,161)" stroke="none" d="M 22048,-4630 L 22339,-4581 15604,10298 15313,10248 22048,-4630 Z"/>
         <path fill="rgb(46,195,162)" stroke="none" d="M 22268,-4593 L 22559,-4544 15824,10335 15533,10286 22268,-4593 Z"/>
         <path fill="rgb(46,195,163)" stroke="none" d="M 22488,-4556 L 22779,-4506 16044,10372 15753,10323 22488,-4556 Z"/>
         <path fill="rgb(46,195,164)" stroke="none" d="M 22708,-4519 L 22999,-4469 16264,10410 15973,10360 22708,-4519 Z"/>
         <path fill="rgb(46,194,165)" stroke="none" d="M 22928,-4481 L 23219,-4432 16484,10447 16193,10398 22928,-4481 Z"/>
         <path fill="rgb(46,194,166)" stroke="none" d="M 23148,-4444 L 23439,-4395 16704,10484 16413,10435 23148,-4444 Z"/>
         <path fill="rgb(46,194,167)" stroke="none" d="M 23368,-4407 L 23659,-4357 16924,10522 16633,10472 23368,-4407 Z"/>
         <path fill="rgb(46,194,168)" stroke="none" d="M 23588,-4369 L 23879,-4320 17144,10559 16853,10510 23588,-4369 Z"/>
         <path fill="rgb(46,193,169)" stroke="none" d="M 23808,-4332 L 24099,-4283 17364,10596 17072,10547 23808,-4332 Z"/>
         <path fill="rgb(45,193,170)" stroke="none" d="M 24028,-4295 L 24319,-4245 17584,10634 17292,10584 24028,-4295 Z"/>
         <path fill="rgb(45,193,171)" stroke="none" d="M 24247,-4257 L 24539,-4208 17804,10671 17512,10621 24247,-4257 Z"/>
         <path fill="rgb(45,193,171)" stroke="none" d="M 24467,-4220 L 24759,-4171 18024,10708 17732,10659 24467,-4220 Z"/>
         <path fill="rgb(45,193,172)" stroke="none" d="M 24687,-4183 L 24979,-4133 18244,10745 17952,10696 24687,-4183 Z"/>
         <path fill="rgb(45,192,173)" stroke="none" d="M 24907,-4146 L 25199,-4096 18464,10783 18172,10733 24907,-4146 Z"/>
         <path fill="rgb(45,192,174)" stroke="none" d="M 25127,-4108 L 25419,-4059 18684,10820 18392,10771 25127,-4108 Z"/>
         <path fill="rgb(45,192,175)" stroke="none" d="M 25347,-4071 L 25639,-4022 18904,10857 18612,10808 25347,-4071 Z"/>
         <path fill="rgb(45,192,176)" stroke="none" d="M 25567,-4034 L 25859,-3984 19123,10895 18832,10845 25567,-4034 Z"/>
         <path fill="rgb(45,191,177)" stroke="none" d="M 25787,-3996 L 26079,-3947 19343,10932 19052,10882 25787,-3996 Z"/>
         <path fill="rgb(45,191,178)" stroke="none" d="M 26007,-3959 L 26298,-3910 19563,10969 19272,10920 26007,-3959 Z"/>
         <path fill="rgb(45,191,179)" stroke="none" d="M 26227,-3922 L 26518,-3872 19783,11007 19492,10957 26227,-3922 Z"/>
         <path fill="rgb(45,191,180)" stroke="none" d="M 26447,-3884 L 26738,-3835 20003,11044 19712,10994 26447,-3884 Z"/>
         <path fill="rgb(45,190,181)" stroke="none" d="M 26667,-3847 L 26958,-3798 20223,11081 19932,11032 26667,-3847 Z"/>
         <path fill="rgb(45,190,182)" stroke="none" d="M 26887,-3810 L 27178,-3760 20443,11118 20152,11069 26887,-3810 Z"/>
         <path fill="rgb(44,190,183)" stroke="none" d="M 27107,-3773 L 27398,-3723 20663,11156 20372,11106 27107,-3773 Z"/>
         <path fill="rgb(44,190,184)" stroke="none" d="M 27327,-3735 L 27618,-3686 20883,11193 20592,11144 27327,-3735 Z"/>
         <path fill="rgb(44,190,185)" stroke="none" d="M 27547,-3698 L 27838,-3649 21103,11230 20812,11181 27547,-3698 Z"/>
         <path fill="rgb(44,189,186)" stroke="none" d="M 27767,-3661 L 28058,-3611 21323,11268 21032,11218 27767,-3661 Z"/>
         <path fill="rgb(44,189,187)" stroke="none" d="M 27987,-3623 L 28278,-3574 21543,11305 21252,11255 27987,-3623 Z"/>
         <path fill="rgb(44,189,188)" stroke="none" d="M 28207,-3586 L 28498,-3537 21763,11342 21472,11293 28207,-3586 Z"/>
         <path fill="rgb(44,189,189)" stroke="none" d="M 28427,-3549 L 28718,-3499 21983,11379 21692,11330 28427,-3549 Z"/>
         <path fill="rgb(44,188,190)" stroke="none" d="M 28647,-3511 L 28938,-3462 22203,11417 21911,11367 28647,-3511 Z"/>
         <path fill="rgb(44,188,191)" stroke="none" d="M 28867,-3474 L 29158,-3425 22423,11454 22131,11405 28867,-3474 Z"/>
         <path fill="rgb(44,188,192)" stroke="none" d="M 29086,-3437 L 29378,-3387 22643,11491 22351,11442 29086,-3437 Z"/>
         <path fill="rgb(44,188,193)" stroke="none" d="M 29306,-3400 L 29598,-3350 22863,11529 22571,11479 29306,-3400 Z"/>
         <path fill="rgb(44,187,194)" stroke="none" d="M 29526,-3362 L 29818,-3313 23083,11566 22791,11517 29526,-3362 Z"/>
         <path fill="rgb(44,187,195)" stroke="none" d="M 29746,-3325 L 30038,-3276 23303,11603 23011,11554 29746,-3325 Z"/>
         <path fill="rgb(44,187,196)" stroke="none" d="M 29966,-3288 L 30258,-3238 23523,11641 23231,11591 29966,-3288 Z"/>
         <path fill="rgb(43,187,197)" stroke="none" d="M 30186,-3250 L 30478,-3201 23743,11678 23451,11628 30186,-3250 Z"/>
         <path fill="rgb(43,187,198)" stroke="none" d="M 30406,-3213 L 30698,-3164 23962,11715 23671,11666 30406,-3213 Z"/>
         <path fill="rgb(43,186,199)" stroke="none" d="M 30626,-3176 L 30918,-3126 24182,11752 23891,11703 30626,-3176 Z"/>
         <path fill="rgb(43,186,200)" stroke="none" d="M 30846,-3138 L 31137,-3089 24402,11790 24111,11740 30846,-3138 Z"/>
         <path fill="rgb(43,186,201)" stroke="none" d="M 31066,-3101 L 31357,-3052 24622,11827 24331,11778 31066,-3101 Z"/>
         <path fill="rgb(43,186,202)" stroke="none" d="M 31286,-3064 L 31577,-3014 24842,11864 24551,11815 31286,-3064 Z"/>
         <path fill="rgb(43,185,202)" stroke="none" d="M 31506,-3027 L 31797,-2977 25062,11902 24771,11852 31506,-3027 Z"/>
         <path fill="rgb(43,185,203)" stroke="none" d="M 31726,-2989 L 32017,-2940 25282,11939 24991,11890 31726,-2989 Z"/>
         <path fill="rgb(43,185,204)" stroke="none" d="M 31946,-2952 L 32237,-2903 25502,11976 25211,11927 31946,-2952 Z"/>
         <path fill="rgb(43,185,205)" stroke="none" d="M 32166,-2915 L 32457,-2865 25722,12014 25431,11964 32166,-2915 Z"/>
         <path fill="rgb(43,185,206)" stroke="none" d="M 32386,-2877 L 32677,-2828 25942,12051 25651,12001 32386,-2877 Z"/>
         <path fill="rgb(43,184,207)" stroke="none" d="M 32606,-2840 L 32897,-2791 26162,12088 25871,12039 32606,-2840 Z"/>
         <path fill="rgb(43,184,208)" stroke="none" d="M 32826,-2803 L 33117,-2753 26382,12125 26091,12076 32826,-2803 Z"/>
         <path fill="rgb(43,184,209)" stroke="none" d="M 33046,-2765 L 33337,-2716 26602,12163 26311,12113 33046,-2765 Z"/>
         <path fill="rgb(42,184,210)" stroke="none" d="M 33266,-2728 L 33557,-2679 26822,12200 26531,12151 33266,-2728 Z"/>
         <path fill="rgb(42,183,211)" stroke="none" d="M 33486,-2691 L 33777,-2641 27042,12237 26751,12188 33486,-2691 Z"/>
         <path fill="rgb(42,183,212)" stroke="none" d="M 33706,-2654 L 33997,-2604 27262,12275 26970,12225 33706,-2654 Z"/>
         <path fill="rgb(42,183,213)" stroke="none" d="M 33925,-2616 L 34217,-2567 27482,12312 27190,12263 33925,-2616 Z"/>
         <path fill="rgb(42,183,214)" stroke="none" d="M 34145,-2579 L 34437,-2530 27702,12349 27410,12300 34145,-2579 Z"/>
         <path fill="rgb(42,182,215)" stroke="none" d="M 34365,-2542 L 34657,-2492 27922,12387 27630,12337 34365,-2542 Z"/>
         <path fill="rgb(42,182,216)" stroke="none" d="M 34585,-2504 L 34877,-2455 28142,12424 27850,12374 34585,-2504 Z"/>
         <path fill="rgb(42,182,217)" stroke="none" d="M 34805,-2467 L 36894,-2113 30159,12766 28070,12412 34805,-2467 Z"/>
        </g>
        <g clip-path="url(#clip_path_1)"/>
       </g>
      </g>
     </g>
    </g>
   </g>
  </g>
 </g>
</svg>